# xmcd CD database file
#
# Track frame offsets:
#	150
#	48415
#	56873
#	69863
#	88847
#	105440
#	118482
#	127380
#	139934
#	148649
#	175682
#	190942
#	212578
#	226595
#	237318
#	254925
#	264355
#	274860
#	289902
#	304184
#	313485
#	329934
#
# Disc length: 4551 seconds
#
# Revision: 0
# Processed by: cddbd v1.5.2PL0 Copyright (c) Steve Scherf et al.
# Submitted via: CDex 1.51
#
DISCID=6b11c516
DTITLE=Learn and Master Blues Guitar - Learn and Master Blues Guitar - Jam Along CD
DYEAR=2009
DGENRE=Blues
TTITLE0=Around the World Blues
TTITLE1=Blues Track
TTITLE2=Bluesy
TTITLE3=The Cats Meow
TTITLE4=Curbside Shuffle
TTITLE5=Fatboy
TTITLE6=Grind and Flail
TTITLE7=Jazz Blues
TTITLE8=Memphis Express
TTITLE9=Minor Blues
TTITLE10=Mojo
TTITLE11=One Armed Bandit
TTITLE12=Really Slow 12-8 Blues
TTITLE13=Shuffle in A
TTITLE14=Slide on Over
TTITLE15=Slow Burn
TTITLE16=Triple Threat
TTITLE17=Up Shuffle
TTITLE18=Working the Beat
TTITLE19=12-Bar Brawl
TTITLE20=12-8 Blues
TTITLE21=50's Boogie-Woogie
EXTD=YEAR: 2009
EXTT0=
EXTT1=
EXTT2=
EXTT3=
EXTT4=
EXTT5=
EXTT6=
EXTT7=
EXTT8=
EXTT9=
EXTT10=
EXTT11=
EXTT12=
EXTT13=
EXTT14=
EXTT15=
EXTT16=
EXTT17=
EXTT18=
EXTT19=
EXTT20=
EXTT21=
PLAYORDER=
